<svg xmlns="http://www.w3.org/2000/svg" xmlns:xlink="http://www.w3.org/1999/xlink" fill="none" version="1.1" width="30" height="30" viewBox="0 0 30 30"><defs><clipPath id="master_svg0_0_6557"><path d="M0 6C4.90527396329193e-16 2.686291501015239 2.6862915010152397 0 6 0L24 0C27.31370849898476 0 30 2.6862915010152397 30 6L30 24C30 27.31370849898476 27.31370849898476 30 24 30L6 30C2.6862915010152397 30 0 27.31370849898476 0 24Z"/></clipPath></defs><g clip-path="url(#master_svg0_0_6557)"><path d="M0 6C4.90527396329193e-16 2.686291501015239 2.6862915010152397 0 6 0L24 0C27.31370849898476 0 30 2.6862915010152397 30 6L30 24C30 27.31370849898476 27.31370849898476 30 24 30L6 30C2.6862915010152397 30 0 27.31370849898476 0 24Z" fill="#F7F7F7" fill-opacity="1"/><g><g><path d="M21.618506291534423,14.589794931435547C21.618475291534423,14.592668171435546,21.618400291534424,14.599810061435546,21.618372291534424,14.602436121435547C21.618363291534422,14.603267791435547,21.618361291534423,14.603584881435546,21.618359291534425,14.604416611435546Q21.613208291534423,17.483599871435548,19.734567291534425,19.437795171435546Q17.822800191534423,21.426449771435546,14.950900091534423,21.426449771435546Q13.344125291534425,21.426449771435546,11.909245991534423,20.727535271435546Q11.908267291534424,20.727058371435547,11.907288591534424,20.726581571435545C11.796648991534424,20.672649371435547,11.664150991534424,20.708256771435547,11.596851791534423,20.811313171435547L11.058413291534425,21.635836171435546C10.935971991534423,21.823333271435548,10.654339991534425,21.800130371435547,10.564235591534423,21.59512277143555L8.977192562534423,17.984244371435548C8.893406838534425,17.793613171435545,9.038077235534423,17.581052771435548,9.246154311534424,17.589065771435546L13.094433791534424,17.73726297143555C13.313372591534424,17.745694371435548,13.439447891534424,17.989705571435547,13.319649691534423,18.173154871435546L12.512548191534425,19.409086671435546C12.500921691534424,19.426890871435546,12.507089591534424,19.450684571435545,12.526205791534423,19.459997671435545Q12.526385291534424,19.460084871435548,12.526565091534424,19.460172671435547Q13.669197091534425,20.01673697143555,14.950900091534423,20.01673697143555Q17.222533691534423,20.01673697143555,18.718297491534422,18.460817371435546Q20.203874291534426,16.915493771435546,20.20864629153442,14.603484451435547C20.208649291534424,14.602402921435546,20.208644291534426,14.601588551435547,20.208634291534423,14.600507021435547L20.208532291534425,14.589931901435547C20.208523291534426,14.589026271435547,20.208517291534424,14.588384151435546,20.208518291534425,14.587478521435546C20.209110291534422,14.198621151435546,20.524523291534422,13.883573472495547,20.913518291534423,13.883573472495547C21.302468291534424,13.883573472495547,21.617852291534426,14.198547241435547,21.618517291534424,14.587341721435546C21.61851829153442,14.588331221435547,21.618517291534424,14.588805441435547,21.618507291534424,14.589794931435547" fill-rule="evenodd" fill="#1A1A1A" fill-opacity="1"/></g><g transform="matrix(-1,0,0,-1,42.25235557556152,32.4647798538208)"><path d="M33.87134278778076,16.9384835969104C33.871313787780764,16.9412714269104,33.87124278778076,16.9481544469104,33.87121478778076,16.9507999969104C33.87120778778076,16.9516730869104,33.87120378778076,16.9520441269104,33.87120278778076,16.9529172169104Q33.86760478778076,20.1618287269104,32.385998787780764,22.0274529269104Q30.64412598778076,24.2208028269104,27.15023758778076,24.2208028269104Q25.58382508778076,24.2208028269104,24.187761287780763,23.4772095269104Q24.106161387780762,23.4337468269104,24.026051787780762,23.3882403269104C23.892648687780763,23.3124609269104,23.72198318778076,23.3498640269104,23.63809558778076,23.478323026910402L23.231706187780762,24.1006360269104C23.10926488778076,24.288133126910402,22.827632687780763,24.2649312269104,22.73752818778076,24.0599231269104L21.15048519878076,20.4490447269104C21.066699474780762,20.2584133269104,21.21136987178076,20.0458531269104,21.419446947780763,20.0538661269104L25.267726387780762,20.2020633269104C25.48666528778076,20.2104947269104,25.612740487780762,20.4545059269104,25.492942287780764,20.6379552269104L24.71833558778076,21.8241272269104C24.631633087780763,21.9568972269104,24.669803887780763,22.1349349269104,24.809099687780762,22.2107100269104Q24.829729987780762,22.2219324269104,24.85047958778076,22.2329845269104Q25.935846287780763,22.8110895269104,27.15023758778076,22.8110895269104Q32.45461878778076,22.8110895269104,32.46149078778076,16.9524949769104C32.46149278778076,16.9514674569104,32.46149078778076,16.9509505069104,32.46147978778076,16.9499228569104C32.46145378778076,16.9472237869104,32.46139178778076,16.9410021869104,32.46136678778076,16.9384299469104C32.46135678778076,16.9375030969104,32.461353787780766,16.9370827669104,32.46135578778076,16.9361558569104C32.46196578778076,16.5473141669104,32.777371787780766,16.2322849631304,33.16635478778076,16.2322849631304C33.55531578778076,16.2322849631304,33.87070778778076,16.547277216910402,33.87135378778076,16.9360874269104C33.87135678778076,16.9370587469104,33.871352787780765,16.9375123369104,33.87134278778076,16.9384835969104" fill-rule="evenodd" fill="#1A1A1A" fill-opacity="1"/></g></g></g></svg>