<svg xmlns="http://www.w3.org/2000/svg" xmlns:xlink="http://www.w3.org/1999/xlink" fill="none" version="1.1" width="30" height="30" viewBox="0 0 30 30"><defs><clipPath id="master_svg0_0_6309"><path d="M0 6C4.90527396329193e-16 2.686291501015239 2.6862915010152397 0 6 0L24 0C27.31370849898476 0 30 2.6862915010152397 30 6L30 24C30 27.31370849898476 27.31370849898476 30 24 30L6 30C2.6862915010152397 30 0 27.31370849898476 0 24Z"/></clipPath></defs><g clip-path="url(#master_svg0_0_6309)"><path d="M0 6C4.90527396329193e-16 2.686291501015239 2.6862915010152397 0 6 0L24 0C27.31370849898476 0 30 2.6862915010152397 30 6L30 24C30 27.31370849898476 27.31370849898476 30 24 30L6 30C2.6862915010152397 30 0 27.31370849898476 0 24Z" fill="#F7F7F7" fill-opacity="1"/><g><path d="M22.542236671875,14.999999971874999Q22.542236671875,15.185151071875,22.533152671875,15.370079971875Q22.524066671874998,15.555007971875,22.505918671875,15.739268271875Q22.487769671875,15.923528671875,22.460601671875,16.106676071875Q22.433435671875,16.289823571875,22.397313671875,16.471416471875Q22.361192671875,16.653010371875,22.316203671875,16.832612971875Q22.271216671875003,17.012215571875,22.217469671875,17.189394971875Q22.163722671875,17.366573371875,22.101346671875,17.540901671874998Q22.038970671875,17.715229671875,21.968116671875002,17.886287671875Q21.897262671874998,18.057345671874998,21.818099671875,18.224719671875Q21.738937671875,18.392095671874998,21.651657671875,18.555385671875Q21.564378671874998,18.718673671875003,21.469191671875002,18.877483671874998Q21.374004671875,19.036292671875,21.271139671874998,19.190240671875Q21.168274671875,19.344188671875,21.057979671875,19.492903671875Q20.947685671875,19.641618671875,20.830226671875,19.784743671875Q20.712768671875,19.927865671875,20.588428671875,20.065054671875Q20.464088671875,20.202242671875,20.333165671875,20.333164671875Q20.202243671875,20.464086671875002,20.065055671875,20.588426671875Q19.927867671875,20.712767671875,19.784744671875,20.830226671875Q19.641619671875,20.947685671875,19.492904671875,21.057978671875Q19.344188671875,21.168273671875,19.190240671875,21.271138671875Q19.036292671875,21.374002671874997,18.877483671874998,21.469189671875Q18.718673671875003,21.564376671875,18.555385671875,21.651656671875Q18.392095671874998,21.738937671875,18.224719671875,21.818098671875Q18.057346671875003,21.897262671874998,17.886287671875,21.968116671875002Q17.715229671875,22.038970671875,17.540901671874998,22.101346671875Q17.366573371875,22.163722671875,17.189394971875,22.217469671875Q17.012215571875,22.271216671875003,16.832612971875,22.316203671875Q16.653010371875,22.361192671875,16.471416471875,22.397313671875Q16.289823571875,22.433435671875,16.106676071875,22.460602671875Q15.923528671875,22.487769671875,15.739268271875,22.505919671875Q15.555007971875,22.524066671874998,15.370079471875,22.533151671875Q15.185151071875,22.542236671875,14.999999971874999,22.542236671875Q14.814848871875,22.542236671875,14.629919971875001,22.533151671875Q14.444991571875,22.524066671874998,14.260731671875,22.505918671875Q14.076471371875,22.487769671875,13.893323871875001,22.460601671875Q13.710176471875,22.433435671875,13.528582571874999,22.397313671875Q13.346988671875,22.361192671875,13.167386071875,22.316203671875Q12.987783471875,22.271216671875003,12.810604571875,22.217469671875Q12.633425671874999,22.163722671875,12.459096871875001,22.101346671875Q12.284768571875,22.038970671875,12.113710871875,21.968116671875002Q11.942653171875001,21.897262671874998,11.775278571874999,21.818099671875Q11.607903471875,21.738937671875,11.444614371875,21.651657671875Q11.281325371874999,21.564378671874998,11.122515171875,21.469191671875002Q10.963705571875,21.374004671875,10.809757671875,21.271139671874998Q10.655809871875,21.168274671875,10.507094871875001,21.057979671875Q10.358379871875,20.947685671875,10.215255771875,20.830226671875Q10.072131671874999,20.712768671875,9.934943471875,20.588428671875Q9.797755271875,20.464088671875,9.666833371875,20.333165671875Q9.535911271875,20.202243671875,9.411571271875,20.065055671875Q9.287231071875,19.927867671875,9.169772271875,19.784744671875Q9.052313371875,19.641619671875,8.942018771875,19.492904671875Q8.831724171874999,19.344188671875,8.728859571875,19.190240671875Q8.625994871875,19.036292671875,8.530807971875,18.877483671874998Q8.435621141875,18.718673671875003,8.348341341875,18.555385671875Q8.261061551875,18.392095671874998,8.181899071875,18.224719671875Q8.102736591875,18.057346671875003,8.031882161875,17.886287671875Q7.961027741875,17.715229671875,7.898652101875,17.540901671874998Q7.836276471875,17.366573371875,7.782529831875,17.189394971875Q7.728783191875,17.012215571875,7.683795031875,16.832612971875Q7.638806881875,16.653010371875,7.602685611875,16.471416471875Q7.566564351875,16.289823571875,7.539396985875,16.106676071875Q7.512229621875,15.923528671875,7.494081601875,15.739268271875Q7.475933579875,15.555007971875,7.466848625775,15.370079471875Q7.457763671875,15.185151071875,7.457763671875,14.999999971874999Q7.457763671875,14.814848871875,7.466848625775,14.629919971875001Q7.475933579875,14.444991571875,7.494081601875,14.260731671875Q7.512229621875,14.076471371875,7.539396985875,13.893323871875001Q7.566564351875,13.710176471875,7.602685611875,13.528582571874999Q7.638806881875,13.346988671875,7.683795031875,13.167386071875Q7.728783191875,12.987783471875,7.782529831875,12.810604571875Q7.836276471875,12.633425671874999,7.898652101875,12.459096871875001Q7.961027741875,12.284768571875,8.031882161875,12.113710871875Q8.102736591875,11.942653171875001,8.181899071875,11.775278571874999Q8.261061551875,11.607903471875,8.348341341875,11.444614371875Q8.435621141875,11.281325371874999,8.530807971875,11.122515171875Q8.625994871875,10.963705571875,8.728859571875,10.809757671875Q8.831724171874999,10.655809871875,8.942018771875,10.507094871875001Q9.052313371875,10.358379871875,9.169772371875,10.215255771875Q9.287231171875,10.072131671874999,9.411571271875,9.934943471875Q9.535911271875,9.797755271875,9.666833371875,9.666833371875Q9.797755271875,9.535911271875,9.934943671875,9.411571271875Q10.072131671874999,9.287231071875,10.215255771875,9.169772271875Q10.358379871875,9.052313371875,10.507094871875001,8.942018771875Q10.655809871875,8.831724171874999,10.809757471874999,8.728859571875Q10.963705071875001,8.625994871875,11.122514971874999,8.530807971875Q11.281324871875,8.435621141875,11.444613971875,8.348341341875Q11.607902971875,8.261061551875,11.775278071875,8.181899071875Q11.942652671874999,8.102736591875,12.113710371875001,8.031882161875Q12.284768071875,7.961027741875,12.459096871875001,7.898652101875Q12.633425271875,7.836276471875,12.810604071875,7.782529831875Q12.987782971875,7.728783191875,13.167385571875,7.683795031875Q13.346988171875001,7.638806881875,13.528582071875,7.602685611875Q13.710176471875,7.566564351875,13.893323871875001,7.539396985875Q14.076471371875,7.512229621875,14.260731671875,7.494081601875Q14.444991571875,7.475933579875,14.629919971875001,7.466848625775Q14.814848871875,7.457763671875,14.999999971874999,7.457763671875Q15.185151071875,7.457763671875,15.370079971875,7.466848625775Q15.555007971875,7.475933579875,15.739268271875,7.494081601875Q15.923528671875,7.512229621875,16.106676071875,7.539396985875Q16.289823571875,7.566564351875,16.471416471875,7.602685611875Q16.653010371875,7.638806881875,16.832612971875,7.683795031875Q17.012215571875,7.728783191875,17.189394971875,7.782529831875Q17.366573371875,7.836276471875,17.540901671874998,7.898652101875Q17.715229671875,7.961027741875,17.886287671875,8.031882161875Q18.057345671874998,8.102736591875,18.224719671875,8.181899071875Q18.392095671874998,8.261061551875,18.555385671875,8.348341341875Q18.718673671875003,8.435621141875,18.877483671874998,8.530807971875Q19.036292671875,8.625994871875,19.190240671875,8.728859571875Q19.344188671875,8.831724171874999,19.492903671875,8.942018771875Q19.641618671875,9.052313371875,19.784743671875,9.169772371875Q19.927865671875,9.287231171875,20.065054671875,9.411571271875Q20.202242671875,9.535911271875,20.333164671875,9.666833371875Q20.464086671875002,9.797755271875,20.588426671875,9.934943671875Q20.712767671875,10.072131671874999,20.830226671875,10.215255771875Q20.947685671875,10.358379871875,21.057978671875,10.507094871875001Q21.168273671875,10.655809871875,21.271138671875,10.809757471874999Q21.374002671874997,10.963705071875001,21.469189671875,11.122514971874999Q21.564376671875,11.281324871875,21.651656671875,11.444613971875Q21.738937671875,11.607902971875,21.818098671875,11.775278071875Q21.897262671874998,11.942652671874999,21.968116671875002,12.113710371875001Q22.038970671875,12.284768071875,22.101346671875,12.459096871875001Q22.163722671875,12.633425271875,22.217469671875,12.810604071875Q22.271216671875003,12.987782971875,22.316203671875,13.167385571875Q22.361192671875,13.346988171875001,22.397313671875,13.528582071875Q22.433435671875,13.710176471875,22.460602671875,13.893323871875001Q22.487769671875,14.076471371875,22.505919671875,14.260731671875Q22.524066671874998,14.444991571875,22.533152671875,14.629919971875001Q22.542236671875,14.814848871875,22.542236671875,14.999999971874999ZM21.306941671875002,14.999999971874999Q21.306941671875002,14.845172871875,21.299344671874998,14.690533171875Q21.291747671875,14.535892471875,21.276573671875,14.381811571875Q21.261396671874998,14.227730271875,21.238678671875,14.074579271874999Q21.215959671874998,13.921428171875,21.185754671875,13.769576071875Q21.155549671875,13.617724371875,21.117929671875,13.467537871874999Q21.080310671875,13.317351371874999,21.035366671875,13.169191371875Q20.990423671875,13.021031371875,20.938262671875002,12.875254671875Q20.886102671875,12.729478371875,20.826852671875002,12.586437271874999Q20.767602671875,12.443395571875,20.701406671875,12.303433871875Q20.635209671875,12.163472171875,20.562225671874998,12.026927471875Q20.489239671874998,11.890382271875,20.409642671874998,11.757583171875Q20.330045671875,11.624783471875,20.244027671875,11.496049871875Q20.158011671875002,11.367316271875,20.065781671875,11.242958271875Q19.973551671875,11.118600371875,19.875330671875,10.998918071875Q19.777108671875,10.879235271875,19.673133671875,10.764516371875Q19.569159671875,10.649797171875,19.459680671875,10.540318271875Q19.350201671875,10.430839271875,19.235482671874998,10.326863971875Q19.120763671875,10.222888971875,19.001081671875,10.124667871875Q18.881398671875,10.026446771875,18.757039671875,9.934216471875Q18.632681671874998,9.841986171875,18.503948671875,9.755969071875Q18.375213671875002,9.669951871875,18.242414671875,9.590355171875Q18.109615671874998,9.510758371875,17.973069671875002,9.437773471875Q17.836524671875,9.364788571875,17.696563671874998,9.298591571875Q17.556602671874998,9.232394571875,17.413560871875,9.173144971875Q17.270519271875,9.113895271875,17.124743471875,9.061735771875Q16.978967671874997,9.009576271875,16.830808671874998,8.964632471875Q16.682647671875,8.919688671875,16.532461171875,8.882068771875Q16.382274671875003,8.844449071875,16.230422971875,8.814243771875Q16.078571271875,8.784038571875,15.925420771875,8.761320871875Q15.772269271875,8.738603071875,15.618188871875,8.723427371875Q15.464107471875,8.708251671875,15.309466871875,8.700654771875Q15.154826671875,8.693057771875,14.999999971874999,8.693057771875Q14.845172871875,8.693057771875,14.690533171875,8.700654771875Q14.535892471875,8.708251671875,14.381811571875,8.723427371875Q14.227730271875,8.738603071875,14.074579271874999,8.761320871875Q13.921428171875,8.784038571875,13.769576071875,8.814243771875Q13.617724371875,8.844449071875,13.467537871874999,8.882068871875Q13.317351371874999,8.919688671875,13.169191371875,8.964632671875Q13.021031371875,9.009576271875,12.875254671875,9.061735871875Q12.729478371875,9.113895371875,12.586437271874999,9.173145071875Q12.443395571875,9.232394671875,12.303433871875,9.298591571875Q12.163472171875,9.364788571875,12.026927471875,9.437773471875Q11.890382271875,9.510758371875,11.757583171875,9.590355171875Q11.624783471875,9.669951871875,11.496049871875,9.755969071875Q11.367316271875,9.841986171875,11.242958271875,9.934216471875Q11.118600371875,10.026446771875,10.998918071875,10.124667871875Q10.879235271875,10.222888971875,10.764516371875,10.326864271875Q10.649797171875,10.430839271875,10.540318271875,10.540318271875Q10.430839271875,10.649797171875,10.326863971875,10.764516071875Q10.222888971875,10.879235271875,10.124667871875,10.998918071875Q10.026446771875,11.118600371875,9.934216471875,11.242958571875Q9.841986171875,11.367316271875,9.755969071875,11.496049871875Q9.669951871875,11.624783471875,9.590355171875,11.757582671875Q9.510758371875,11.890382271875,9.437773471875,12.026927471875Q9.364788571875,12.163472171875,9.298591571875,12.303433871875Q9.232394571875,12.443395571875,9.173144971875,12.586437271874999Q9.113895271875,12.729478371875,9.061735771875,12.875254671875Q9.009576271875,13.021030871875,8.964632471875,13.169190871875Q8.919688671875,13.317350871875,8.882068771875,13.467537871874999Q8.844449071875,13.617724371875,8.814243771875,13.769576071875Q8.784038571875,13.921428171875,8.761320871875,14.074579271874999Q8.738603071875,14.227730271875,8.723427371875,14.381811571875Q8.708251671875,14.535892471875,8.700654771875,14.690532671875001Q8.693057771875,14.845172871875,8.693057771875,14.999999971874999Q8.693057771875,15.154826671875,8.700654771875,15.309466871875Q8.708251671875,15.464107471875,8.723427371875,15.618188871875Q8.738603071875,15.772269271875,8.761320871875,15.925419771875Q8.784038571875,16.078571271875,8.814243771875,16.230422971875Q8.844449071875,16.382274671875003,8.882068871875,16.532461171875Q8.919688671875,16.682647671875,8.964632671875,16.830808671874998Q9.009576271875,16.978967671874997,9.061735871875,17.124743471875Q9.113895371875,17.270519271875,9.173145071875,17.413560871875Q9.232394671875,17.556602671874998,9.298591571875,17.696563671874998Q9.364788571875,17.836524671875,9.437773471875,17.973070671875Q9.510758371875,18.109615671874998,9.590355171875,18.242414671875Q9.669951871875,18.375213671875002,9.755969071875,18.503948671875Q9.841986171875,18.632681671874998,9.934216471875,18.757039671875Q10.026446771875,18.881397671875,10.124667871875,19.001080671875002Q10.222888971875,19.120763671875,10.326864271875,19.235482671874998Q10.430839271875,19.350201671875,10.540318271875,19.459680671875Q10.649797171875,19.569159671875,10.764516071875,19.673133671875Q10.879235271875,19.777109671875,10.998918071875,19.875331671875Q11.118600371875,19.973552671874998,11.242958571875,20.065782671875Q11.367316271875,20.158012671875,11.496049871875,20.244029671874998Q11.624783471875,20.330046671875,11.757582671875,20.409643671875Q11.890382271875,20.489240671875002,12.026927471875,20.562225671874998Q12.163472171875,20.635209671875,12.303433871875,20.701407671875Q12.443395571875,20.767603671875,12.586437271874999,20.826853671875Q12.729478371875,20.886103671875,12.875254671875,20.938262671875002Q13.021030871875,20.990423671875,13.169190871875,21.035366671875Q13.317350871875,21.080310671875,13.467537871874999,21.117930671875Q13.617724371875,21.155549671875,13.769576071875,21.185754671875Q13.921428171875,21.215959671874998,14.074579271874999,21.238678671875Q14.227730271875,21.261396671874998,14.381811571875,21.276572671875Q14.535892471875,21.291747671875,14.690532671875001,21.299344671874998Q14.845172871875,21.306941671875002,14.999999971874999,21.306941671875002Q15.154826671875,21.306941671875002,15.309466871875,21.299344671874998Q15.464107471875,21.291747671875,15.618188871875,21.276573671875Q15.772269271875,21.261396671874998,15.925419771875,21.238678671875Q16.078571271875,21.215959671874998,16.230422971875,21.185754671875Q16.382274671875003,21.155549671875,16.532461171875,21.117929671875Q16.682647671875,21.080310671875,16.830808671874998,21.035366671875Q16.978967671874997,20.990423671875,17.124743471875,20.938262671875002Q17.270519271875,20.886102671875,17.413560871875,20.826852671875002Q17.556602671874998,20.767602671875,17.696563671874998,20.701406671875Q17.836524671875,20.635209671875,17.973070671875,20.562225671874998Q18.109615671874998,20.489239671874998,18.242414671875,20.409642671874998Q18.375213671875002,20.330045671875,18.503948671875,20.244027671875Q18.632681671874998,20.158011671875002,18.757039671875,20.065781671875Q18.881397671875,19.973551671875,19.001080671875002,19.875330671875Q19.120763671875,19.777108671875,19.235482671874998,19.673133671875Q19.350201671875,19.569159671875,19.459680671875,19.459680671875Q19.569159671875,19.350201671875,19.673133671875,19.235482671874998Q19.777109671875,19.120763671875,19.875331671875,19.001081671875Q19.973552671874998,18.881398671875,20.065782671875,18.757039671875Q20.158012671875,18.632681671874998,20.244029671874998,18.503948671875Q20.330046671875,18.375213671875002,20.409643671875,18.242414671875Q20.489240671875002,18.109615671874998,20.562225671874998,17.973069671875002Q20.635209671875,17.836524671875,20.701407671875,17.696563671874998Q20.767603671875,17.556602671874998,20.826853671875,17.413560871875Q20.886103671875,17.270519271875,20.938262671875002,17.124743471875Q20.990423671875,16.978967671874997,21.035366671875,16.830808671874998Q21.080310671875,16.682647671875,21.117930671875,16.532461171875Q21.155549671875,16.382274671875003,21.185754671875,16.230422971875Q21.215959671874998,16.078571271875,21.238678671875,15.925420771875Q21.261396671874998,15.772269271875,21.276572671875,15.618188871875Q21.291747671875,15.464107471875,21.299344671874998,15.309466871875Q21.306941671875002,15.154826671875,21.306941671875002,14.999999971874999Z" fill="#1A1A1A" fill-opacity="1"/></g><g><rect x="12.35595703125" y="12.35595703125" width="5.2880859375" height="5.2880859375" rx="1" fill="#1A1A1A" fill-opacity="1"/></g></g></svg>