<svg xmlns="http://www.w3.org/2000/svg" xmlns:xlink="http://www.w3.org/1999/xlink" fill="none" version="1.1" width="14" height="14" viewBox="0 0 14 14"><defs><clipPath id="master_svg0_0_6520"><rect x="0" y="0" width="14" height="14" rx="0"/></clipPath><radialGradient cx="0" cy="0" r="1" gradientUnits="userSpaceOnUse" id="master_svg1_0_202" gradientTransform="translate(6.999999726649548 7.000142882592627) rotate(133.1523867662103) scale(4.57182477191682 4.557634230709175)"><stop offset="17.91287660598755%" stop-color="#5561F5" stop-opacity="1"/><stop offset="35.53777635097504%" stop-color="#5561F5" stop-opacity="0"/></radialGradient></defs><g clip-path="url(#master_svg0_0_6520)"><g><path d="M2.9322078796874997,11.067934265579224Q4.6171417296875,12.752867765579223,7.0000000296875,12.752867765579223L7.0000000296875,12.751201765579223Q7.0572328296875,12.751201765579223,7.1141901296875,12.745592765579223Q7.1711473296875,12.739981765579223,7.2272796296875,12.728816765579223Q7.2834129296875,12.717650765579224,7.3381810296875,12.701036765579223Q7.3929496296875,12.684422765579223,7.4458255296875,12.662519765579223Q7.4987020296875,12.640618765579223,7.5491771296875,12.613638765579223Q7.5996513296875,12.586659765579224,7.6472387296875,12.554861765579224Q7.6948261296875,12.523066765579223,7.7390680296875,12.486758765579223Q7.7833094296875,12.450449765579224,7.8237791296875,12.409980065579223Q7.8642492296875,12.369510865579224,7.9005565296875,12.325268965579223Q7.9368648296875,12.281028065579223,7.9686613296875,12.233439665579224Q8.0004587296875,12.185853265579224,8.027437729687499,12.135378165579224Q8.0544171296875,12.084903965579224,8.0763187296875,12.032027465579224Q8.098220829687499,11.979151965579224,8.1148348296875,11.924383365579224Q8.1314487296875,11.869614865579223,8.1426143296875,11.813481565579224Q8.153780429687501,11.757349265579224,8.1593904296875,11.700391965579223Q8.1649999296875,11.643434765579224,8.1649999296875,11.586201865579223Q8.1649999296875,11.528969965579224,8.1593904296875,11.472012765579224Q8.153780429687501,11.415055465579224,8.1426143296875,11.358922265579224Q8.131449229687501,11.302788965579223,8.1148352296875,11.248020365579224Q8.0982217296875,11.193251865579224,8.076319229687499,11.140374465579225Q8.0544176296875,11.087498865579224,8.027437729687499,11.037023765579224Q8.0004587296875,10.986548665579223,7.9686613296875,10.938961265579223Q7.9368648296875,10.891373865579224,7.9005570296875,10.847132965579224Q7.8642492296875,10.802891965579224,7.8237791296875,10.762421865579224Q7.7833094296875,10.721953665579223,7.7390680296875,10.685645365579223Q7.6948261296875,10.649337065579223,7.6472387296875,10.617538665579223Q7.5996513296875,10.585742265579224,7.5491767296875,10.558762765579223Q7.4987020296875,10.531783365579223,7.4458255296875,10.509881265579224Q7.3929496296875,10.487979165579224,7.3381815296875,10.471366165579223Q7.2834129296875,10.454753165579223,7.2272796296875,10.443586565579224Q7.1711473296875,10.432421965579223,7.1141901296875,10.426812365579224Q7.0572328296875,10.421202865579223,7.0000000296875,10.421201965579224L7.0000000296875,10.419534965579224Q5.5836405296875,10.419534965579224,4.5821240296875,9.418018565579224Q3.5806068296875,8.416501265579225,3.5806067296875,7.000142365579223Q3.5806073296875,5.583783165579224,4.5821242296874996,4.5822663655792235Q5.5836413296875005,3.5807491655792236,7.0000000296875,3.580749065579224Q8.416358929687501,3.5807496655792237,9.4178762296875,4.582266565579223Q10.4193926296875,5.583783165579224,10.4193926296875,7.000142365579223L10.4210596296875,7.000142365579223Q10.4210596296875,7.057375165579224,10.4266691296875,7.114332465579223Q10.4322786296875,7.1712896655792235,10.4434433296875,7.227421965579223Q10.4546098296875,7.283555265579223,10.4712238296875,7.338323365579224Q10.4878368296875,7.393091965579224,10.5097389296875,7.445967865579224Q10.5316410296875,7.498844365579224,10.5586204296875,7.549319465579224Q10.5855999296875,7.599793665579224,10.6173963296875,7.647381065579224Q10.6491947296875,7.694968465579223,10.6855030296875,7.739210365579224Q10.7218113296875,7.7834517655792235,10.7622795296875,7.8239214655792235Q10.8027496296875,7.864391565579224,10.8469906296875,7.900698865579224Q10.8912325296875,7.937007165579224,10.9388199296875,7.968803665579224Q10.9864063296875,8.000601065579223,11.0368814296875,8.027580065579222Q11.0873565296875,8.054559465579224,11.1402321296875,8.076461065579224Q11.1931095296875,8.098363165579222,11.2478771296875,8.114977165579223Q11.3026466296875,8.131591065579224,11.3587789296875,8.142756665579224Q11.4149131296875,8.153922765579225,11.4718704296875,8.159532765579224Q11.5288276296875,8.165142265579224,11.5860595296875,8.165142265579224Q11.6432924296875,8.165142265579224,11.7002496296875,8.159532765579224Q11.7572069296875,8.153922765579225,11.8133392296875,8.142756665579224Q11.8694725296875,8.131591565579225,11.9242410296875,8.114977565579224Q11.9790096296875,8.098364065579224,12.0318851296875,8.076461565579223Q12.0847616296875,8.054559965579223,12.1352358296875,8.027580065579222Q12.1857109296875,8.000601065579223,12.2332973296875,7.968803665579224Q12.2808857296875,7.937007165579224,12.3251266296875,7.900699365579223Q12.3693685296875,7.864391565579224,12.4098377296875,7.8239214655792235Q12.4503074296875,7.7834517655792235,12.4866164296875,7.739210365579224Q12.5229244296875,7.694968465579223,12.5547194296875,7.647381065579224Q12.5865174296875,7.599793665579224,12.6134964296875,7.5493190655792235Q12.6404764296875,7.498844365579224,12.6623774296875,7.445967865579224Q12.6842804296875,7.393091965579224,12.7008934296875,7.338323865579223Q12.7175084296875,7.283555265579223,12.7286744296875,7.227421965579223Q12.7398394296875,7.1712896655792235,12.7454504296875,7.114332465579223Q12.7510604296875,7.057375165579224,12.7510594296875,7.000142365579223L12.7527254296875,7.000142365579223Q12.7527254296875,4.617284265579224,11.0677919296875,2.9323503955792236Q9.382857829687499,1.2474158655792236,7.0000000296875,1.2474154655792236Q4.6171429296875,1.2474154655792236,2.9322080596875,2.9323502155792234Q1.2472735296875,4.617284765579224,1.2472731296875,7.000142365579223Q1.2472731296875,9.382999665579224,2.9322078796874997,11.067934265579224Z" fill-rule="evenodd" fill="url(#master_svg1_0_202)" fill-opacity="1"/></g></g></svg>